<svg xmlns="http://www.w3.org/2000/svg" viewBox="0 0 105.25 105.25"><path d="M71.71 30.724H52.626V27.93H71.71v2.794zm0 7.88H52.626V41.4H71.71v-2.795zM33.54 52.18h38.17v-2.806H33.54v2.806zm0 10.668h38.17v-2.795H33.54v2.795zm0 10.787h38.17v-2.802H33.54v2.802zm0-31.415l5.357-15.142h3.672l5.357 15.142H44.57l-1.027-3.078h-5.74l-.995 3.078h-1.625-1.644zm5.138-5.684h4.02l-2.012-6.07-2.008 6.07zM86.263 3.22v98.81c0 1.774-1.44 3.22-3.217 3.22h-60.84c-1.78 0-3.217-1.446-3.217-3.22V3.22C18.987 1.443 20.425 0 22.204 0h60.84c1.78-.004 3.218 1.442 3.218 3.22zM43.72 5.8c0 .434.34.788.75.788h16.32c.407 0 .747-.354.747-.787 0-.436-.34-.79-.748-.79H44.47c-.416 0-.75.35-.75.79zM57.014 97.64c0-2.09-1.7-3.797-3.79-3.797-2.094 0-3.794 1.708-3.794 3.798 0 2.097 1.7 3.797 3.793 3.797 2.09 0 3.79-1.7 3.79-3.797zm22.815-86.87h-44.14V21.96l-3.483-2.924-3.482 2.924V10.77h-3.3v78.64h35.28v12.43l12.43-12.43h6.69l.005-78.64z"/></svg>