<svg xmlns="http://www.w3.org/2000/svg" viewBox="0 0 791.803 791.803"><path d="M395.904 475.016l-236.203-72.7v121.42c0 56.133 105.788 101.644 236.275 101.644 130.48 0 236.285-45.51 236.285-101.644 0-.442-.145-.886-.154-1.318V402.316l-236.202 72.7z"/><path d="M0 318.734l84.383 30.185 7.19-15.402 31-2.635 4.42 4.6-26.6 6.307-3.877 11.475c-.007 0-60.087 125.604-51.263 187.05 0 0 37.502 22.37 74.988 0l9.963-168V358.33l55.8-12.587-3.94 9.705-41.605 13.53 19.242 6.873 236.203 72.7 236.2-72.7 159.7-57.115-395.9-152.313L0 318.734z"/></svg>
